<?xml version="1.0" encoding="UTF-8"?><!DOCTYPE svg PUBLIC "-//W3C//DTD SVG 1.1//EN" "http://www.w3.org/Graphics/SVG/1.1/DTD/svg11.dtd"><svg xmlns="http://www.w3.org/2000/svg" xmlns:xlink="http://www.w3.org/1999/xlink" version="1.1" id="Layer_1" x="0px" y="0px" width="512px" height="512px" viewBox="0 0 512 512" xml:space="preserve"><path d="M80 144h352v192H80z"/><path d="M464 96H48c-8.837 0-16 7.163-16 16v256c0 8.837 6.932 16 15.768 16H464c8.837 0 16-7.163 16-16V112c0-8.837-7.163-16-16-16zm-16 256H64V128h384v224z"/><path d="M80 480h32l28.147-80h-31.312z"/><path d="M270.83 32h-29.358l-17.301 48h63.928z"/><path d="M371.853 400L400 480h32l-28.78-80z"/><path d="M240 400h32v48h-32z"/><metadata><rdf:RDF xmlns:rdf="http://www.w3.org/1999/02/22-rdf-syntax-ns#" xmlns:rdfs="http://www.w3.org/2000/01/rdf-schema#" xmlns:dc="http://purl.org/dc/elements/1.1/"><rdf:Description about="https://iconscout.com/legal#licenses" dc:title="easel" dc:description="easel" dc:publisher="Iconscout" dc:date="2017-09-24" dc:format="image/svg+xml" dc:language="en"><dc:creator><rdf:Bag><rdf:li>Benjamin J Sperry</rdf:li></rdf:Bag></dc:creator></rdf:Description></rdf:RDF></metadata></svg>