<?xml version="1.0" encoding="UTF-8"?><!DOCTYPE svg PUBLIC "-//W3C//DTD SVG 1.1//EN" "http://www.w3.org/Graphics/SVG/1.1/DTD/svg11.dtd"><svg xmlns="http://www.w3.org/2000/svg" xmlns:xlink="http://www.w3.org/1999/xlink" version="1.1" id="Layer_1" x="0px" y="0px" width="512px" height="512px" viewBox="0 0 512 512" xml:space="preserve"><path d="M398.1 233.2c0-1.2.2-2.4.2-3.6 0-65-51.8-117.6-115.7-117.6-46.1 0-85.7 27.4-104.3 67-8.1-4.1-17.2-6.5-26.8-6.5-29.5 0-54.1 21.9-58.8 50.5C57.3 235.2 32 269.1 32 309c0 50.2 40.1 90.9 89.5 91h276.7c45.2-.2 81.7-37.5 81.7-83.4.1-46-36.6-83.3-81.8-83.4z"/><metadata><rdf:RDF xmlns:rdf="http://www.w3.org/1999/02/22-rdf-syntax-ns#" xmlns:rdfs="http://www.w3.org/2000/01/rdf-schema#" xmlns:dc="http://purl.org/dc/elements/1.1/"><rdf:Description about="https://iconscout.com/legal#licenses" dc:title="cloud" dc:description="cloud" dc:publisher="Iconscout" dc:date="2017-09-24" dc:format="image/svg+xml" dc:language="en"><dc:creator><rdf:Bag><rdf:li>Benjamin J Sperry</rdf:li></rdf:Bag></dc:creator></rdf:Description></rdf:RDF></metadata></svg>