<?xml version="1.0" encoding="UTF-8"?><!DOCTYPE svg PUBLIC "-//W3C//DTD SVG 1.1//EN" "http://www.w3.org/Graphics/SVG/1.1/DTD/svg11.dtd"><svg xmlns="http://www.w3.org/2000/svg" xmlns:xlink="http://www.w3.org/1999/xlink" version="1.1" id="Layer_1" x="0px" y="0px" width="512px" height="512px" viewBox="0 0 512 512" xml:space="preserve"><path d="M168 392a23.929 23.929 0 0 1-16.971-7.029l-112-112c-9.373-9.373-9.373-24.569 0-33.941l112-112c9.373-9.372 24.568-9.372 33.941 0 9.371 9.372 9.371 24.568 0 33.941L89.941 256l95.029 95.029c9.371 9.373 9.371 24.568 0 33.941A23.925 23.925 0 0 1 168 392z"/><path d="M344 392a23.929 23.929 0 0 0 16.971-7.029l112-112c9.373-9.373 9.373-24.569 0-33.941l-112-112c-9.373-9.372-24.568-9.372-33.941 0-9.371 9.372-9.371 24.568 0 33.941L422.059 256l-95.029 95.029c-9.371 9.373-9.371 24.568 0 33.941A23.925 23.925 0 0 0 344 392z"/><metadata><rdf:RDF xmlns:rdf="http://www.w3.org/1999/02/22-rdf-syntax-ns#" xmlns:rdfs="http://www.w3.org/2000/01/rdf-schema#" xmlns:dc="http://purl.org/dc/elements/1.1/"><rdf:Description about="https://iconscout.com/legal#licenses" dc:title="code" dc:description="code" dc:publisher="Iconscout" dc:date="2017-09-24" dc:format="image/svg+xml" dc:language="en"><dc:creator><rdf:Bag><rdf:li>Benjamin J Sperry</rdf:li></rdf:Bag></dc:creator></rdf:Description></rdf:RDF></metadata></svg>