<?xml version="1.0" encoding="UTF-8"?><!DOCTYPE svg PUBLIC "-//W3C//DTD SVG 1.1//EN" "http://www.w3.org/Graphics/SVG/1.1/DTD/svg11.dtd"><svg xmlns="http://www.w3.org/2000/svg" xmlns:xlink="http://www.w3.org/1999/xlink" version="1.1" id="Layer_1" x="0px" y="0px" width="512px" height="512px" viewBox="0 0 512 512" xml:space="preserve"><path d="M442.8 99.6l-30.4-30.4c-7-6.9-18.2-6.9-25.1 0L355.5 101l55.5 55.5 31.8-31.7c6.9-7.1 6.9-18.3 0-25.2z"/><path d="M346.1 110.5L174.1 288 160 352l64-14.1 176.6-173z"/><path d="M384 256v150c0 5.1-3.9 10.1-9.2 10.1s-269-.1-269-.1c-5.6 0-9.8-5.4-9.8-10V138c0-5 4.7-10 10.6-10H256l32-32H87.4c-13 0-23.4 10.3-23.4 23.3v305.3c0 12.9 10.5 23.4 23.4 23.4h305.3c12.9 0 23.3-10.5 23.3-23.4V224l-32 32z"/><metadata><rdf:RDF xmlns:rdf="http://www.w3.org/1999/02/22-rdf-syntax-ns#" xmlns:rdfs="http://www.w3.org/2000/01/rdf-schema#" xmlns:dc="http://purl.org/dc/elements/1.1/"><rdf:Description about="https://iconscout.com/legal#licenses" dc:title="compose" dc:description="compose" dc:publisher="Iconscout" dc:date="2017-09-24" dc:format="image/svg+xml" dc:language="en"><dc:creator><rdf:Bag><rdf:li>Benjamin J Sperry</rdf:li></rdf:Bag></dc:creator></rdf:Description></rdf:RDF></metadata></svg>