<?xml version="1.0" encoding="UTF-8"?><!DOCTYPE svg PUBLIC "-//W3C//DTD SVG 1.1//EN" "http://www.w3.org/Graphics/SVG/1.1/DTD/svg11.dtd"><svg xmlns="http://www.w3.org/2000/svg" xmlns:xlink="http://www.w3.org/1999/xlink" version="1.1" id="Layer_1" x="0px" y="0px" width="512px" height="512px" viewBox="0 0 512 512" xml:space="preserve"><path d="M256 158.9c-53.7 0-97.2 43.5-97.2 97.2s43.5 97.1 97.2 97.1 97.2-43.5 97.2-97.1c0-53.7-43.5-97.2-97.2-97.2zm0 140.6c-24 0-43.5-19.5-43.5-43.5s19.5-43.5 43.5-43.5 43.5 19.5 43.5 43.5-19.5 43.5-43.5 43.5z"/><path d="M256 32C132.3 32 32 132.3 32 256s100.3 224 224 224 224-100.3 224-224S379.7 32 256 32zm0 346.8c-67.8 0-122.8-55-122.8-122.8s55-122.8 122.8-122.8 122.8 55 122.8 122.8-55 122.8-122.8 122.8z"/><metadata><rdf:RDF xmlns:rdf="http://www.w3.org/1999/02/22-rdf-syntax-ns#" xmlns:rdfs="http://www.w3.org/2000/01/rdf-schema#" xmlns:dc="http://purl.org/dc/elements/1.1/"><rdf:Description about="https://iconscout.com/legal#licenses" dc:title="disc" dc:description="disc" dc:publisher="Iconscout" dc:date="2017-09-24" dc:format="image/svg+xml" dc:language="en"><dc:creator><rdf:Bag><rdf:li>Benjamin J Sperry</rdf:li></rdf:Bag></dc:creator></rdf:Description></rdf:RDF></metadata></svg>