<?xml version="1.0" encoding="UTF-8"?><!DOCTYPE svg PUBLIC "-//W3C//DTD SVG 1.1//EN" "http://www.w3.org/Graphics/SVG/1.1/DTD/svg11.dtd"><svg xmlns="http://www.w3.org/2000/svg" xmlns:xlink="http://www.w3.org/1999/xlink" version="1.1" id="Layer_1" x="0px" y="0px" width="512px" height="512px" viewBox="0 0 512 512" xml:space="preserve"><path d="M399.3 168.9c-.7-2.9-2-5-3.5-6.8l-83.7-91.7c-1.9-2.1-4.1-3.1-6.6-4.4-2.9-1.5-6.1-1.6-9.4-1.6H136.2c-12.4 0-23.7 9.6-23.7 22.9v335.2c0 13.4 11.3 25.9 23.7 25.9h243.1c12.4 0 21.2-12.5 21.2-25.9V178.4c0-3.6-.4-6.2-1.2-9.5zM305.5 111l58 63.5h-58V111zm-161 305.5v-320h129v81.7c0 14.8 13.4 28.3 28.1 28.3h66.9v210h-224z"/><metadata><rdf:RDF xmlns:rdf="http://www.w3.org/1999/02/22-rdf-syntax-ns#" xmlns:rdfs="http://www.w3.org/2000/01/rdf-schema#" xmlns:dc="http://purl.org/dc/elements/1.1/"><rdf:Description about="https://iconscout.com/legal#licenses" dc:title="document" dc:description="document" dc:publisher="Iconscout" dc:date="2017-09-24" dc:format="image/svg+xml" dc:language="en"><dc:creator><rdf:Bag><rdf:li>Benjamin J Sperry</rdf:li></rdf:Bag></dc:creator></rdf:Description></rdf:RDF></metadata></svg>