<?xml version="1.0" encoding="UTF-8"?><!DOCTYPE svg PUBLIC "-//W3C//DTD SVG 1.1//EN" "http://www.w3.org/Graphics/SVG/1.1/DTD/svg11.dtd"><svg xmlns="http://www.w3.org/2000/svg" xmlns:xlink="http://www.w3.org/1999/xlink" version="1.1" id="Layer_1" x="0px" y="0px" width="512px" height="512px" viewBox="0 0 512 512" xml:space="preserve"><path d="M399 320c10 0 16.8-7.1 16.8-15.9 0-3.3-1.1-6.1-2.8-9L275.3 104.7c-4.6-5.3-11.5-8.7-19.3-8.7-7.7 0-14.6 3.4-19.2 8.7l-138 190.8c-1.7 2.6-2.6 5.5-2.6 8.7 0 8.7 6.8 15.8 16.8 15.8h286z"/><path d="M403.7 352H108.4c-6.8 0-12.4 5.4-12.4 12.2v39.6c0 6.7 5.5 12.2 12.4 12.2h295.3c6.8 0 12.3-5.5 12.3-12.2v-39.6c0-6.8-5.5-12.2-12.3-12.2z"/><metadata><rdf:RDF xmlns:rdf="http://www.w3.org/1999/02/22-rdf-syntax-ns#" xmlns:rdfs="http://www.w3.org/2000/01/rdf-schema#" xmlns:dc="http://purl.org/dc/elements/1.1/"><rdf:Description about="https://iconscout.com/legal#licenses" dc:title="eject" dc:description="eject" dc:publisher="Iconscout" dc:date="2017-09-24" dc:format="image/svg+xml" dc:language="en"><dc:creator><rdf:Bag><rdf:li>Benjamin J Sperry</rdf:li></rdf:Bag></dc:creator></rdf:Description></rdf:RDF></metadata></svg>