<?xml version="1.0" encoding="UTF-8"?><!DOCTYPE svg PUBLIC "-//W3C//DTD SVG 1.1//EN" "http://www.w3.org/Graphics/SVG/1.1/DTD/svg11.dtd"><svg xmlns="http://www.w3.org/2000/svg" xmlns:xlink="http://www.w3.org/1999/xlink" version="1.1" id="Layer_1" x="0px" y="0px" width="512px" height="512px" viewBox="0 0 512 512" xml:space="preserve"><path d="M256 128c-81.9 0-145.7 48.8-224 128 67.4 67.7 124 128 224 128 99.9 0 173.4-76.4 224-126.6C428.2 198.6 354.8 128 256 128zm0 219.3c-49.4 0-89.6-41-89.6-91.3 0-50.4 40.2-91.3 89.6-91.3s89.6 41 89.6 91.3c0 50.4-40.2 91.3-89.6 91.3z"/><path d="M256 224c0-7.9 2.9-15.1 7.6-20.7-2.5-.4-5-.6-7.6-.6-28.8 0-52.3 23.9-52.3 53.3s23.5 53.3 52.3 53.3 52.3-23.9 52.3-53.3c0-2.3-.2-4.6-.4-6.9-5.5 4.3-12.3 6.9-19.8 6.9-17.8 0-32.1-14.3-32.1-32z"/><metadata><rdf:RDF xmlns:rdf="http://www.w3.org/1999/02/22-rdf-syntax-ns#" xmlns:rdfs="http://www.w3.org/2000/01/rdf-schema#" xmlns:dc="http://purl.org/dc/elements/1.1/"><rdf:Description about="https://iconscout.com/legal#licenses" dc:title="eye" dc:description="eye" dc:publisher="Iconscout" dc:date="2017-09-24" dc:format="image/svg+xml" dc:language="en"><dc:creator><rdf:Bag><rdf:li>Benjamin J Sperry</rdf:li></rdf:Bag></dc:creator></rdf:Description></rdf:RDF></metadata></svg>