<?xml version="1.0" encoding="UTF-8"?><!DOCTYPE svg PUBLIC "-//W3C//DTD SVG 1.1//EN" "http://www.w3.org/Graphics/SVG/1.1/DTD/svg11.dtd"><svg xmlns="http://www.w3.org/2000/svg" xmlns:xlink="http://www.w3.org/1999/xlink" version="1.1" id="Layer_1" x="0px" y="0px" width="512px" height="512px" viewBox="0 0 512 512" xml:space="preserve"><path d="M448.4 208h-344l341.2-68c8.5-1.6 14-9.7 12.4-18.1l-8.9-45.4c-1.6-8.4-9.8-13.8-18.3-12.2L60.7 137.9c-8.5 1.6-14 9.7-12.4 18l8.9 45.4c.6 2.8 2.1 5.2 3.9 7.2-7.4 1.2-13.1 7.2-13.1 14.9v209.2c0 8.5 7 15.4 15.6 15.4h384.8c8.6 0 15.6-6.9 15.6-15.4V223.4c0-8.5-7-15.4-15.6-15.4zM305 402.4l-50.7-36.3-50.7 36.3 19.5-58.4-50.8-36H235l19.2-58.4 19.3 58.4h62.7l-50.8 36 19.6 58.4z"/><metadata><rdf:RDF xmlns:rdf="http://www.w3.org/1999/02/22-rdf-syntax-ns#" xmlns:rdfs="http://www.w3.org/2000/01/rdf-schema#" xmlns:dc="http://purl.org/dc/elements/1.1/"><rdf:Description about="https://iconscout.com/legal#licenses" dc:title="film,marker" dc:description="film,marker" dc:publisher="Iconscout" dc:date="2017-09-24" dc:format="image/svg+xml" dc:language="en"><dc:creator><rdf:Bag><rdf:li>Benjamin J Sperry</rdf:li></rdf:Bag></dc:creator></rdf:Description></rdf:RDF></metadata></svg>