<?xml version="1.0" encoding="UTF-8"?><!DOCTYPE svg PUBLIC "-//W3C//DTD SVG 1.1//EN" "http://www.w3.org/Graphics/SVG/1.1/DTD/svg11.dtd"><svg xmlns="http://www.w3.org/2000/svg" xmlns:xlink="http://www.w3.org/1999/xlink" version="1.1" id="Layer_1" x="0px" y="0px" width="512px" height="512px" viewBox="0 0 512 512" xml:space="preserve"><path d="M426.4 182.5c-35.8 5.9-94.2 7.5-133-66.1-41.6-79.1-108.8-81.5-148.1-74.3-19.1 3.5-33.4 19.5-33.4 35v196.6c11.3 4.3 23.4-.2 26.5-.8.8-.2 1.5-.3 2.4-.5 25-5.5 51.4-8.1 116.8 23.3 82 39.3 153.8-33.1 181.6-83.5 2-3.5 8.7-20.2 8.7-36.2-9.7 4-21.5 6.5-21.5 6.5z"/><path d="M88 32H72c-4.4 0-8 3.6-8 8v432c0 4.4 3.6 8 8 8h16c4.4 0 8-3.6 8-8V40c0-4.4-3.6-8-8-8z"/><metadata><rdf:RDF xmlns:rdf="http://www.w3.org/1999/02/22-rdf-syntax-ns#" xmlns:rdfs="http://www.w3.org/2000/01/rdf-schema#" xmlns:dc="http://purl.org/dc/elements/1.1/"><rdf:Description about="https://iconscout.com/legal#licenses" dc:title="flag" dc:description="flag" dc:publisher="Iconscout" dc:date="2017-09-24" dc:format="image/svg+xml" dc:language="en"><dc:creator><rdf:Bag><rdf:li>Benjamin J Sperry</rdf:li></rdf:Bag></dc:creator></rdf:Description></rdf:RDF></metadata></svg>