<?xml version="1.0" encoding="UTF-8"?><!DOCTYPE svg PUBLIC "-//W3C//DTD SVG 1.1//EN" "http://www.w3.org/Graphics/SVG/1.1/DTD/svg11.dtd"><svg xmlns="http://www.w3.org/2000/svg" xmlns:xlink="http://www.w3.org/1999/xlink" version="1.1" id="Layer_1" x="0px" y="0px" width="512px" height="512px" viewBox="0 0 512 512" xml:space="preserve"><style type="text/css"><![CDATA[
	.st0{fill:#010101;}
]]></style><path class="st0" fill="#010101" d="M416 80h-48V32h-64v48h-48v64h48v48h64v-48h48z"/><path class="st0" d="M304 240c0 38.6-4.5 42.3-14.4 50.3-7.4 6-22.2 7.1-39.4 8.3-9.5.7-20.4 1.5-31.4 3.3-9.4 1.5-18.4 4.7-26.8 8.8V151.4c19.1-11.1 32-31.7 32-55.4 0-35.3-28.7-64-64-64S96 60.7 96 96c0 23.7 12.9 44.3 32 55.4v209.2c-19.1 11.1-32 31.7-32 55.4 0 35.3 28.7 64 64 64s64-28.7 64-64c0-15.7-5.7-30.1-15-41.2 6.7-4.8 13.9-8.7 20.2-9.7 8.1-1.3 16.6-1.9 25.6-2.6 24.4-1.7 52.1-3.7 75.2-22.5 30.9-25.1 37.5-52.1 38-94.9V240h-64zM160 64c17.6 0 32 14.4 32 32s-14.4 32-32 32-32-14.4-32-32 14.4-32 32-32zm0 384c-17.6 0-32-14.4-32-32s14.4-32 32-32 32 14.4 32 32-14.4 32-32 32z" fill="#010101"/><metadata><rdf:RDF xmlns:rdf="http://www.w3.org/1999/02/22-rdf-syntax-ns#" xmlns:rdfs="http://www.w3.org/2000/01/rdf-schema#" xmlns:dc="http://purl.org/dc/elements/1.1/"><rdf:Description about="https://iconscout.com/legal#licenses" dc:title="fork,repo" dc:description="fork,repo" dc:publisher="Iconscout" dc:date="2017-09-24" dc:format="image/svg+xml" dc:language="en"><dc:creator><rdf:Bag><rdf:li>Benjamin J Sperry</rdf:li></rdf:Bag></dc:creator></rdf:Description></rdf:RDF></metadata></svg>