<?xml version="1.0" encoding="UTF-8"?><!DOCTYPE svg PUBLIC "-//W3C//DTD SVG 1.1//EN" "http://www.w3.org/Graphics/SVG/1.1/DTD/svg11.dtd"><svg xmlns="http://www.w3.org/2000/svg" xmlns:xlink="http://www.w3.org/1999/xlink" version="1.1" id="Layer_1" x="0px" y="0px" width="512px" height="512px" viewBox="0 0 512 512" xml:space="preserve"><path d="M160 153.3c0 3.7-3 6.7-6.7 6.7h-50.5c-3.7 0-6.7-3-6.7-6.7v-50.5c0-3.7 3-6.7 6.7-6.7h50.5c3.7 0 6.7 3 6.7 6.7v50.5z"/><path d="M288 153.3c0 3.7-3 6.7-6.7 6.7h-50.5c-3.7 0-6.7-3-6.7-6.7v-50.5c0-3.7 3-6.7 6.7-6.7h50.5c3.7 0 6.7 3 6.7 6.7v50.5z"/><path d="M416 153.3c0 3.7-3 6.7-6.7 6.7h-50.5c-3.7 0-6.7-3-6.7-6.7v-50.5c0-3.7 3-6.7 6.7-6.7h50.5c3.7 0 6.7 3 6.7 6.7v50.5z"/><g><path d="M160 281.3c0 3.7-3 6.7-6.7 6.7h-50.5c-3.7 0-6.7-3-6.7-6.7v-50.5c0-3.7 3-6.7 6.7-6.7h50.5c3.7 0 6.7 3 6.7 6.7v50.5z"/><path d="M288 281.3c0 3.7-3 6.7-6.7 6.7h-50.5c-3.7 0-6.7-3-6.7-6.7v-50.5c0-3.7 3-6.7 6.7-6.7h50.5c3.7 0 6.7 3 6.7 6.7v50.5z"/><path d="M416 281.3c0 3.7-3 6.7-6.7 6.7h-50.5c-3.7 0-6.7-3-6.7-6.7v-50.5c0-3.7 3-6.7 6.7-6.7h50.5c3.7 0 6.7 3 6.7 6.7v50.5z"/></g><g><path d="M160 409.3c0 3.7-3 6.7-6.7 6.7h-50.5c-3.7 0-6.7-3-6.7-6.7v-50.5c0-3.7 3-6.7 6.7-6.7h50.5c3.7 0 6.7 3 6.7 6.7v50.5z"/><path d="M288 409.3c0 3.7-3 6.7-6.7 6.7h-50.5c-3.7 0-6.7-3-6.7-6.7v-50.5c0-3.7 3-6.7 6.7-6.7h50.5c3.7 0 6.7 3 6.7 6.7v50.5z"/><path d="M416 409.3c0 3.7-3 6.7-6.7 6.7h-50.5c-3.7 0-6.7-3-6.7-6.7v-50.5c0-3.7 3-6.7 6.7-6.7h50.5c3.7 0 6.7 3 6.7 6.7v50.5z"/></g><metadata><rdf:RDF xmlns:rdf="http://www.w3.org/1999/02/22-rdf-syntax-ns#" xmlns:rdfs="http://www.w3.org/2000/01/rdf-schema#" xmlns:dc="http://purl.org/dc/elements/1.1/"><rdf:Description about="https://iconscout.com/legal#licenses" dc:title="grid" dc:description="grid" dc:publisher="Iconscout" dc:date="2017-09-24" dc:format="image/svg+xml" dc:language="en"><dc:creator><rdf:Bag><rdf:li>Benjamin J Sperry</rdf:li></rdf:Bag></dc:creator></rdf:Description></rdf:RDF></metadata></svg>