<?xml version="1.0" encoding="UTF-8"?><!DOCTYPE svg PUBLIC "-//W3C//DTD SVG 1.1//EN" "http://www.w3.org/Graphics/SVG/1.1/DTD/svg11.dtd"><svg xmlns="http://www.w3.org/2000/svg" xmlns:xlink="http://www.w3.org/1999/xlink" version="1.1" id="Layer_1" x="0px" y="0px" width="512px" height="512px" viewBox="0 0 512 512" xml:space="preserve"><path d="M410 32h-52c-3.3 0-6 2.7-6 6v5.6c-4 4-10.9 9.8-17.8 9.8-10.5 0-14.8-16.4-26.1-18.4s-27.2-3-37.9-3-52 .7-102 21.5-71.7 64.9-72.3 81.4c-.3 8.7 2.7 21.1 10 11.1 7.3-10 35.3-42.3 57.7-44.7 22.3-2.3 45.7.8 63.7 17.2 17.3 15.7 21.3 30.8 21.3 73.5l-6.6 2c-4.3 1.3-7 5.7-7 9 0 0-.2 6.5-.2 70.4C234.8 368 224 474 224 474c0 3.3 2.7 6 6 6h84c3.3 0 6-2.7 6-6 0 0-10.8-106-10.8-200.6 0-63.9-.2-70.4-.2-70.4 0-3.3-2.3-7.8-7-9l-8-2c0-38.2-.4-54 6.3-65.9 7-12.4 22.3-22.9 29.7-25.1 5.9-1.8 16 1.3 22 6.5V122c0 3.3 2.7 6 6 6h52c3.3 0 6-2.7 6-6V38c0-3.3-2.7-6-6-6z"/><metadata><rdf:RDF xmlns:rdf="http://www.w3.org/1999/02/22-rdf-syntax-ns#" xmlns:rdfs="http://www.w3.org/2000/01/rdf-schema#" xmlns:dc="http://purl.org/dc/elements/1.1/"><rdf:Description about="https://iconscout.com/legal#licenses" dc:title="hammer" dc:description="hammer" dc:publisher="Iconscout" dc:date="2017-09-24" dc:format="image/svg+xml" dc:language="en"><dc:creator><rdf:Bag><rdf:li>Benjamin J Sperry</rdf:li></rdf:Bag></dc:creator></rdf:Description></rdf:RDF></metadata></svg>